<svg data-v-d3f97b9e="" xmlns="http://www.w3.org/2000/svg" viewBox="0 0 430.58143824441123 163"><!----><!----><!----><g data-v-d3f97b9e="" id="b3ac5354-70d3-422b-bdfc-52f799de3787" fill="white" transform="matrix(5.813953660298242,0,0,5.813953660298242,-3.0232496834976814,86.08139458793505)"><path d="M3.70 13.23L3.70 13.23Q2.63 13.23 1.92 12.91L1.92 12.91L1.92 12.91Q1.20 12.59 0.86 12.16L0.86 12.16L0.86 12.16Q0.52 11.73 0.52 11.42L0.52 11.42L0.52 11.42Q0.52 11.28 0.61 11.20L0.61 11.20L0.61 11.20Q0.70 11.12 0.83 11.12L0.83 11.12L1.97 11.12L1.97 11.12Q2.09 11.12 2.17 11.23L2.17 11.23L2.17 11.23Q2.24 11.28 2.48 11.49L2.48 11.49L2.48 11.49Q2.73 11.70 3.04 11.82L3.04 11.82L3.04 11.82Q3.36 11.94 3.74 11.94L3.74 11.94L3.74 11.94Q4.30 11.94 4.65 11.72L4.65 11.72L4.65 11.72Q5.00 11.51 5.00 11.10L5.00 11.10L5.00 11.10Q5.00 10.82 4.84 10.65L4.84 10.65L4.84 10.65Q4.68 10.47 4.26 10.32L4.26 10.32L4.26 10.32Q3.85 10.18 3.02 10.00L3.02 10.00L3.02 10.00Q1.83 9.74 1.27 9.23L1.27 9.23L1.27 9.23Q0.70 8.71 0.70 7.85L0.70 7.85L0.70 7.85Q0.70 7.29 1.04 6.80L1.04 6.80L1.04 6.80Q1.37 6.30 2.04 5.98L2.04 5.98L2.04 5.98Q2.70 5.67 3.63 5.67L3.63 5.67L3.63 5.67Q4.58 5.67 5.26 5.97L5.26 5.97L5.26 5.97Q5.95 6.27 6.31 6.69L6.31 6.69L6.31 6.69Q6.66 7.11 6.66 7.43L6.66 7.43L6.66 7.43Q6.66 7.56 6.57 7.65L6.57 7.65L6.57 7.65Q6.48 7.74 6.36 7.74L6.36 7.74L5.31 7.74L5.31 7.74Q5.15 7.74 5.07 7.63L5.07 7.63L5.07 7.63Q4.97 7.56 4.75 7.37L4.75 7.37L4.75 7.37Q4.54 7.18 4.27 7.07L4.27 7.07L4.27 7.07Q4.00 6.96 3.63 6.96L3.63 6.96L3.63 6.96Q3.11 6.96 2.83 7.18L2.83 7.18L2.83 7.18Q2.55 7.41 2.55 7.77L2.55 7.77L2.55 7.77Q2.55 8.02 2.68 8.19L2.68 8.19L2.68 8.19Q2.81 8.36 3.22 8.50L3.22 8.50L3.22 8.50Q3.63 8.65 4.44 8.81L4.44 8.81L4.44 8.81Q6.96 9.30 6.96 11.00L6.96 11.00L6.96 11.00Q6.96 12.00 6.10 12.61L6.10 12.61L6.10 12.61Q5.24 13.23 3.70 13.23L3.70 13.23ZM10.37 13.09L10.37 13.09Q10.02 13.09 9.91 12.74L9.91 12.74L7.91 6.24L7.91 6.24Q7.90 6.20 7.90 6.12L7.90 6.12L7.90 6.12Q7.90 5.99 7.98 5.90L7.98 5.90L7.98 5.90Q8.06 5.81 8.19 5.81L8.19 5.81L9.25 5.81L9.25 5.81Q9.39 5.81 9.50 5.89L9.50 5.89L9.50 5.89Q9.60 5.98 9.63 6.08L9.63 6.08L10.99 10.68L12.43 6.12L12.43 6.12Q12.47 5.99 12.58 5.90L12.58 5.90L12.58 5.90Q12.68 5.81 12.85 5.81L12.85 5.81L13.57 5.81L13.57 5.81Q13.73 5.81 13.84 5.90L13.84 5.90L13.84 5.90Q13.94 5.99 13.97 6.12L13.97 6.12L15.43 10.68L16.79 6.08L16.79 6.08Q16.81 5.98 16.91 5.89L16.91 5.89L16.91 5.89Q17.01 5.81 17.16 5.81L17.16 5.81L18.21 5.81L18.21 5.81Q18.34 5.81 18.43 5.90L18.43 5.90L18.43 5.90Q18.52 5.99 18.52 6.12L18.52 6.12L18.49 6.24L16.49 12.74L16.49 12.74Q16.44 12.91 16.33 13.00L16.33 13.00L16.33 13.00Q16.23 13.09 16.04 13.09L16.04 13.09L15.12 13.09L15.12 13.09Q14.76 13.09 14.66 12.74L14.66 12.74L13.22 8.34L11.76 12.74L11.76 12.74Q11.65 13.09 11.28 13.09L11.28 13.09L10.37 13.09ZM21.99 13.23L21.99 13.23Q21.28 13.23 20.68 12.94L20.68 12.94L20.68 12.94Q20.09 12.66 19.75 12.17L19.75 12.17L19.75 12.17Q19.40 11.68 19.40 11.09L19.40 11.09L19.40 11.09Q19.40 10.14 20.17 9.55L20.17 9.55L20.17 9.55Q20.94 8.96 22.29 8.75L22.29 8.75L24.21 8.47L24.21 8.18L24.21 8.18Q24.21 7.57 23.90 7.27L23.90 7.27L23.90 7.27Q23.59 6.96 22.92 6.96L22.92 6.96L22.92 6.96Q22.46 6.96 22.18 7.13L22.18 7.13L22.18 7.13Q21.90 7.29 21.72 7.47L21.72 7.47L21.72 7.47Q21.55 7.64 21.49 7.70L21.49 7.70L21.49 7.70Q21.43 7.87 21.28 7.87L21.28 7.87L20.19 7.87L20.19 7.87Q20.06 7.87 19.97 7.78L19.97 7.78L19.97 7.78Q19.88 7.70 19.88 7.56L19.88 7.56L19.88 7.56Q19.89 7.21 20.22 6.77L20.22 6.77L20.22 6.77Q20.55 6.33 21.24 6.00L21.24 6.00L21.24 6.00Q21.92 5.67 22.93 5.67L22.93 5.67L22.93 5.67Q24.58 5.67 25.34 6.41L25.34 6.41L25.34 6.41Q26.10 7.15 26.10 8.36L26.10 8.36L26.10 12.75L26.10 12.75Q26.10 12.89 26.00 12.99L26.00 12.99L26.00 12.99Q25.91 13.09 25.76 13.09L25.76 13.09L24.60 13.09L24.60 13.09Q24.46 13.09 24.36 12.99L24.36 12.99L24.36 12.99Q24.26 12.89 24.26 12.75L24.26 12.75L24.26 12.21L24.26 12.21Q23.95 12.66 23.39 12.94L23.39 12.94L23.39 12.94Q22.83 13.23 21.99 13.23L21.99 13.23ZM22.47 11.89L22.47 11.89Q23.24 11.89 23.73 11.38L23.73 11.38L23.73 11.38Q24.22 10.88 24.22 9.93L24.22 9.93L24.22 9.65L22.82 9.87L22.82 9.87Q21.21 10.12 21.21 10.95L21.21 10.95L21.21 10.95Q21.21 11.40 21.58 11.64L21.58 11.64L21.58 11.64Q21.95 11.89 22.47 11.89L22.47 11.89ZM28.22 13.09L28.22 13.09Q28.08 13.09 27.99 12.99L27.99 12.99L27.99 12.99Q27.89 12.89 27.89 12.75L27.89 12.75L27.89 6.16L27.89 6.16Q27.89 6.01 27.99 5.91L27.99 5.91L27.99 5.91Q28.08 5.81 28.22 5.81L28.22 5.81L29.37 5.81L29.37 5.81Q29.53 5.81 29.62 5.91L29.62 5.91L29.62 5.91Q29.72 6.01 29.72 6.16L29.72 6.16L29.72 6.73L29.72 6.73Q30.42 5.81 31.74 5.81L31.74 5.81L32.33 5.81L32.33 5.81Q32.48 5.81 32.57 5.90L32.57 5.90L32.57 5.90Q32.66 5.99 32.66 6.15L32.66 6.15L32.66 7.17L32.66 7.17Q32.66 7.31 32.57 7.41L32.57 7.41L32.57 7.41Q32.48 7.50 32.33 7.50L32.33 7.50L31.22 7.50L31.22 7.50Q30.56 7.50 30.18 7.88L30.18 7.88L30.18 7.88Q29.81 8.26 29.81 8.92L29.81 8.92L29.81 12.75L29.81 12.75Q29.81 12.89 29.71 12.99L29.71 12.99L29.71 12.99Q29.61 13.09 29.47 13.09L29.47 13.09L28.22 13.09ZM34.09 13.09L34.09 13.09Q33.95 13.09 33.85 12.99L33.85 12.99L33.85 12.99Q33.75 12.89 33.75 12.75L33.75 12.75L33.75 6.15L33.75 6.15Q33.75 5.99 33.85 5.90L33.85 5.90L33.85 5.90Q33.95 5.81 34.09 5.81L34.09 5.81L35.20 5.81L35.20 5.81Q35.35 5.81 35.44 5.90L35.44 5.90L35.44 5.90Q35.53 5.99 35.53 6.15L35.53 6.15L35.53 6.62L35.53 6.62Q36.29 5.67 37.56 5.67L37.56 5.67L37.56 5.67Q39.12 5.67 39.73 6.92L39.73 6.92L39.73 6.92Q40.07 6.36 40.68 6.01L40.68 6.01L40.68 6.01Q41.30 5.67 42.01 5.67L42.01 5.67L42.01 5.67Q43.16 5.67 43.89 6.45L43.89 6.45L43.89 6.45Q44.62 7.24 44.62 8.74L44.62 8.74L44.62 12.75L44.62 12.75Q44.62 12.89 44.53 12.99L44.53 12.99L44.53 12.99Q44.44 13.09 44.28 13.09L44.28 13.09L43.12 13.09L43.12 13.09Q42.98 13.09 42.88 12.99L42.88 12.99L42.88 12.99Q42.78 12.89 42.78 12.75L42.78 12.75L42.78 8.85L42.78 8.85Q42.78 7.97 42.41 7.57L42.41 7.57L42.41 7.57Q42.04 7.18 41.44 7.18L41.44 7.18L41.44 7.18Q40.89 7.18 40.51 7.58L40.51 7.58L40.51 7.58Q40.12 7.98 40.12 8.85L40.12 8.85L40.12 12.75L40.12 12.75Q40.12 12.89 40.03 12.99L40.03 12.99L40.03 12.99Q39.94 13.09 39.79 13.09L39.79 13.09L38.61 13.09L38.61 13.09Q38.47 13.09 38.37 12.99L38.37 12.99L38.37 12.99Q38.28 12.89 38.28 12.75L38.28 12.75L38.28 8.85L38.28 8.85Q38.28 7.98 37.90 7.58L37.90 7.58L37.90 7.58Q37.52 7.18 36.93 7.18L36.93 7.18L36.93 7.18Q36.39 7.18 36.00 7.58L36.00 7.58L36.00 7.58Q35.62 7.98 35.62 8.85L35.62 8.85L35.62 12.75L35.62 12.75Q35.62 12.89 35.52 12.99L35.52 12.99L35.52 12.99Q35.43 13.09 35.28 13.09L35.28 13.09L34.09 13.09ZM49.55 13.23L49.55 13.23Q47.98 13.23 47.06 12.33L47.06 12.33L47.06 12.33Q46.14 11.44 46.09 9.79L46.09 9.79L46.07 9.44L46.07 9.44Q46.07 7.69 46.99 6.68L46.99 6.68L46.99 6.68Q47.91 5.67 49.53 5.67L49.53 5.67L49.53 5.67Q51.20 5.67 52.10 6.68L52.10 6.68L52.10 6.68Q53.00 7.69 53.00 9.37L53.00 9.37L53.00 9.66L53.00 9.66Q53.00 9.80 52.91 9.90L52.91 9.90L52.91 9.90Q52.81 10.00 52.65 10.00L52.65 10.00L48.01 10.00L48.01 10.11L48.01 10.11Q48.03 10.89 48.43 11.40L48.43 11.40L48.43 11.40Q48.83 11.91 49.53 11.91L49.53 11.91L49.53 11.91Q50.33 11.91 50.83 11.27L50.83 11.27L50.83 11.27Q50.96 11.12 51.03 11.08L51.03 11.08L51.03 11.08Q51.10 11.05 51.27 11.05L51.27 11.05L52.50 11.05L52.50 11.05Q52.63 11.05 52.72 11.12L52.72 11.12L52.72 11.12Q52.81 11.19 52.81 11.31L52.81 11.31L52.81 11.31Q52.81 11.65 52.41 12.10L52.41 12.10L52.41 12.10Q52.01 12.56 51.27 12.89L51.27 12.89L51.27 12.89Q50.53 13.23 49.55 13.23L49.55 13.23ZM48.01 8.81L51.07 8.81L51.07 8.78L51.07 8.78Q51.07 7.95 50.66 7.46L50.66 7.46L50.66 7.46Q50.25 6.96 49.53 6.96L49.53 6.96L49.53 6.96Q48.82 6.96 48.41 7.46L48.41 7.46L48.41 7.46Q48.01 7.95 48.01 8.78L48.01 8.78L48.01 8.81ZM54.82 13.09L54.82 13.09Q54.68 13.09 54.59 12.99L54.59 12.99L54.59 12.99Q54.49 12.89 54.49 12.75L54.49 12.75L54.49 6.16L54.49 6.16Q54.49 6.01 54.59 5.91L54.59 5.91L54.59 5.91Q54.68 5.81 54.82 5.81L54.82 5.81L55.97 5.81L55.97 5.81Q56.13 5.81 56.22 5.91L56.22 5.91L56.22 5.91Q56.32 6.01 56.32 6.16L56.32 6.16L56.32 6.73L56.32 6.73Q57.02 5.81 58.34 5.81L58.34 5.81L58.93 5.81L58.93 5.81Q59.08 5.81 59.17 5.90L59.17 5.90L59.17 5.90Q59.26 5.99 59.26 6.15L59.26 6.15L59.26 7.17L59.26 7.17Q59.26 7.31 59.17 7.41L59.17 7.41L59.17 7.41Q59.08 7.50 58.93 7.50L58.93 7.50L57.82 7.50L57.82 7.50Q57.16 7.50 56.78 7.88L56.78 7.88L56.78 7.88Q56.41 8.26 56.41 8.92L56.41 8.92L56.41 12.75L56.41 12.75Q56.41 12.89 56.31 12.99L56.31 12.99L56.31 12.99Q56.21 13.09 56.07 13.09L56.07 13.09L54.82 13.09ZM60.61 13.09L60.61 13.09Q60.47 13.09 60.37 12.99L60.37 12.99L60.37 12.99Q60.27 12.89 60.27 12.75L60.27 12.75L60.27 11.34L60.27 11.34Q60.27 11.20 60.37 11.10L60.37 11.10L60.37 11.10Q60.47 11.00 60.61 11.00L60.61 11.00L62.02 11.00L62.02 11.00Q62.16 11.00 62.26 11.10L62.26 11.10L62.26 11.10Q62.36 11.20 62.36 11.34L62.36 11.34L62.36 12.75L62.36 12.75Q62.36 12.89 62.26 12.99L62.26 12.99L62.26 12.99Q62.17 13.09 62.02 13.09L62.02 13.09L60.61 13.09ZM64.40 4.62L64.40 4.62Q64.26 4.62 64.16 4.52L64.16 4.52L64.16 4.52Q64.06 4.42 64.06 4.28L64.06 4.28L64.06 3.26L64.06 3.26Q64.06 3.11 64.16 3.01L64.16 3.01L64.16 3.01Q64.26 2.91 64.40 2.91L64.40 2.91L65.69 2.91L65.69 2.91Q65.84 2.91 65.94 3.01L65.94 3.01L65.94 3.01Q66.04 3.11 66.04 3.26L66.04 3.26L66.04 4.28L66.04 4.28Q66.04 4.42 65.93 4.52L65.93 4.52L65.93 4.52Q65.83 4.62 65.69 4.62L65.69 4.62L64.40 4.62ZM64.46 13.09L64.46 13.09Q64.32 13.09 64.22 12.99L64.22 12.99L64.22 12.99Q64.12 12.89 64.12 12.75L64.12 12.75L64.12 6.15L64.12 6.15Q64.12 5.99 64.22 5.90L64.22 5.90L64.22 5.90Q64.32 5.81 64.46 5.81L64.46 5.81L65.65 5.81L65.65 5.81Q65.79 5.81 65.88 5.91L65.88 5.91L65.88 5.91Q65.98 6.01 65.98 6.15L65.98 6.15L65.98 12.75L65.98 12.75Q65.98 12.89 65.88 12.99L65.88 12.99L65.88 12.99Q65.79 13.09 65.65 13.09L65.65 13.09L64.46 13.09ZM71.06 13.23L71.06 13.23Q69.41 13.23 68.52 12.39L68.52 12.39L68.52 12.39Q67.62 11.55 67.55 10.07L67.55 10.07L67.54 9.45L67.55 8.83L67.55 8.83Q67.62 7.36 68.53 6.52L68.53 6.52L68.53 6.52Q69.44 5.67 71.06 5.67L71.06 5.67L71.06 5.67Q72.67 5.67 73.58 6.52L73.58 6.52L73.58 6.52Q74.49 7.36 74.56 8.83L74.56 8.83L74.56 8.83Q74.58 9.00 74.58 9.45L74.58 9.45L74.58 9.45Q74.58 9.90 74.56 10.07L74.56 10.07L74.56 10.07Q74.49 11.55 73.60 12.39L73.60 12.39L73.60 12.39Q72.70 13.23 71.06 13.23L71.06 13.23ZM71.06 11.82L71.06 11.82Q71.81 11.82 72.20 11.35L72.20 11.35L72.20 11.35Q72.60 10.89 72.63 10.00L72.63 10.00L72.63 10.00Q72.65 9.86 72.65 9.45L72.65 9.45L72.65 9.45Q72.65 9.04 72.63 8.90L72.63 8.90L72.63 8.90Q72.60 8.01 72.20 7.54L72.20 7.54L72.20 7.54Q71.79 7.07 71.06 7.07L71.06 7.07L71.06 7.07Q70.32 7.07 69.92 7.54L69.92 7.54L69.92 7.54Q69.51 8.01 69.48 8.90L69.48 8.90L69.47 9.45L69.48 10.00L69.48 10.00Q69.51 10.89 69.92 11.35L69.92 11.35L69.92 11.35Q70.32 11.82 71.06 11.82L71.06 11.82Z"></path></g><!----><g data-v-d3f97b9e="" id="4af2a132-9905-48af-8b92-608337ecba19" transform="matrix(1.2367396106462634,0,0,1.2367396106462634,154.20240639355927,-16.222973586742754)" stroke="none" fill="white"><path d="M59.068 58.977l-7.232-1.746-.633.437 5.225 13.17-10.657 9.337.429.793 7.212 1.742 11.184-9.799z"></path><path d="M59.068 58.977l-7.232-1.746-.633.437 5.225 13.17-10.657 9.337.429.793 7.212 1.742 11.184-9.799z"></path><path d="M74.76 62.652l-7.231-1.745-.009.006-.885-.214 5.486 13.814-10.656 9.338.012.022-.635.559 1.053.214 5.808 1.402 1.401.338L80.141 76.35zM45.73 61.428l-7.348 5.053 4.233 7.845 6.11-5.35z"></path><path d="M45.73 61.428l-7.348 5.053 4.233 7.845 6.11-5.35z"></path><path d="M45.73 61.428l-7.348 5.053 4.233 7.845 6.11-5.35z"></path><path d="M45.73 61.428l-7.348 5.053 4.233 7.845 6.11-5.35zM54.445 22.237l3.738 6.533-4.38 18.74-5.456 3.666-3.758-9.301 3.61-15.438 6.246-4.2m2.018-8.623l-13.598 9.139-4.585 19.61 7.261 17.969 13.596-9.141 5.459-23.358-8.133-14.219zM25.88 73.909l-10.826-2.178-.345-13.985 11.407-7.883 11.17 3.081v13.082zM25.068 49.822l-3.395-10.68-5.434-5.381.146-2.371-2.298-1.844-2.457.706-.157 2.552 2.298 1.844 1.777-.511 5.463 5.41 2.604 8.191-6.33-4.92-7.671-1.116-.971-1.332-2.419.036L5.04 42.14l1.236 1.696 2.419-.037.912-1.335 7.373 1.072zM81.395 78.08l13.566 4.019-13.039-7.061.644 1.885z"></path></g><!----></svg>