<svg data-v-29081953="" xmlns="http://www.w3.org/2000/svg" viewBox="0 0 300 300"><!----><defs data-v-29081953=""><!----></defs><rect data-v-29081953="" fill="#CFED1D" x="0" y="0" width="300px" height="300px" class="logo-background-square"></rect><!----><defs data-v-29081953=""><!----></defs><g data-v-29081953="" id="bb9f0d2b-0a31-45bd-b6e0-253c3058484d" fill="#EC5583" stroke="none" transform="matrix(2.4465920733065363,0,0,2.4465920733065363,27.669176043865136,27.670405667681287)"><path d="M59.068 58.977l-7.232-1.746-.633.437 5.225 13.17-10.657 9.337.429.793 7.212 1.742 11.184-9.799z"></path><path d="M59.068 58.977l-7.232-1.746-.633.437 5.225 13.17-10.657 9.337.429.793 7.212 1.742 11.184-9.799z"></path><path d="M74.76 62.652l-7.231-1.745-.009.006-.885-.214 5.486 13.814-10.656 9.338.012.022-.635.559 1.053.214 5.808 1.402 1.401.338L80.141 76.35zM45.73 61.428l-7.348 5.053 4.233 7.845 6.11-5.35z"></path><path d="M45.73 61.428l-7.348 5.053 4.233 7.845 6.11-5.35z"></path><path d="M45.73 61.428l-7.348 5.053 4.233 7.845 6.11-5.35z"></path><path d="M45.73 61.428l-7.348 5.053 4.233 7.845 6.11-5.35zM54.445 22.237l3.738 6.533-4.38 18.74-5.456 3.666-3.758-9.301 3.61-15.438 6.246-4.2m2.018-8.623l-13.598 9.139-4.585 19.61 7.261 17.969 13.596-9.141 5.459-23.358-8.133-14.219zM25.88 73.909l-10.826-2.178-.345-13.985 11.407-7.883 11.17 3.081v13.082zM25.068 49.822l-3.395-10.68-5.434-5.381.146-2.371-2.298-1.844-2.457.706-.157 2.552 2.298 1.844 1.777-.511 5.463 5.41 2.604 8.191-6.33-4.92-7.671-1.116-.971-1.332-2.419.036L5.04 42.14l1.236 1.696 2.419-.037.912-1.335 7.373 1.072zM81.395 78.08l13.566 4.019-13.039-7.061.644 1.885z"></path></g><!----></svg>